<mxfile host="app.diagrams.net" modified="2023-01-11T07:48:43.676Z" agent="5.0 (Windows NT 10.0; Win64; x64) AppleWebKit/537.36 (KHTML, like Gecko) Chrome/108.0.0.0 Safari/537.36" etag="8WDJwGffQee74-97Yna1" version="20.8.3" type="github">
  <diagram id="C5RBs43oDa-KdzZeNtuy" name="Page-1">
    <mxGraphModel dx="2503" dy="972" grid="1" gridSize="10" guides="1" tooltips="1" connect="1" arrows="1" fold="1" page="1" pageScale="1" pageWidth="827" pageHeight="1169" math="0" shadow="0">
      <root>
        <mxCell id="WIyWlLk6GJQsqaUBKTNV-0" />
        <mxCell id="WIyWlLk6GJQsqaUBKTNV-1" parent="WIyWlLk6GJQsqaUBKTNV-0" />
        <mxCell id="WIyWlLk6GJQsqaUBKTNV-2" value="" style="rounded=0;html=1;jettySize=auto;orthogonalLoop=1;fontSize=11;endArrow=block;endFill=0;endSize=8;strokeWidth=1;shadow=0;labelBackgroundColor=none;edgeStyle=orthogonalEdgeStyle;" parent="WIyWlLk6GJQsqaUBKTNV-1" target="WIyWlLk6GJQsqaUBKTNV-6" edge="1">
          <mxGeometry relative="1" as="geometry">
            <mxPoint x="60" y="140" as="sourcePoint" />
          </mxGeometry>
        </mxCell>
        <mxCell id="WIyWlLk6GJQsqaUBKTNV-4" value="Yes" style="rounded=0;html=1;jettySize=auto;orthogonalLoop=1;fontSize=11;endArrow=block;endFill=0;endSize=8;strokeWidth=1;shadow=0;labelBackgroundColor=none;edgeStyle=orthogonalEdgeStyle;" parent="WIyWlLk6GJQsqaUBKTNV-1" source="WIyWlLk6GJQsqaUBKTNV-6" edge="1">
          <mxGeometry y="20" relative="1" as="geometry">
            <mxPoint as="offset" />
            <mxPoint x="60" y="330" as="targetPoint" />
          </mxGeometry>
        </mxCell>
        <mxCell id="WIyWlLk6GJQsqaUBKTNV-5" value="No" style="edgeStyle=orthogonalEdgeStyle;rounded=0;html=1;jettySize=auto;orthogonalLoop=1;fontSize=11;endArrow=block;endFill=0;endSize=8;strokeWidth=1;shadow=0;labelBackgroundColor=none;entryX=0;entryY=0.5;entryDx=0;entryDy=0;" parent="WIyWlLk6GJQsqaUBKTNV-1" source="WIyWlLk6GJQsqaUBKTNV-6" target="S4tk1vwkPnhRa-5dBJaB-56" edge="1">
          <mxGeometry y="10" relative="1" as="geometry">
            <mxPoint as="offset" />
            <mxPoint x="740" y="225" as="targetPoint" />
          </mxGeometry>
        </mxCell>
        <mxCell id="WIyWlLk6GJQsqaUBKTNV-6" value="Lebih Dari 1000KG&lt;br&gt;" style="rhombus;whiteSpace=wrap;html=1;shadow=0;fontFamily=Helvetica;fontSize=12;align=center;strokeWidth=1;spacing=6;spacingTop=-4;" parent="WIyWlLk6GJQsqaUBKTNV-1" vertex="1">
          <mxGeometry x="10" y="180" width="100" height="90" as="geometry" />
        </mxCell>
        <mxCell id="S4tk1vwkPnhRa-5dBJaB-2" value="Convert mg to KG Panjang x Berat" style="rounded=0;whiteSpace=wrap;html=1;" vertex="1" parent="WIyWlLk6GJQsqaUBKTNV-1">
          <mxGeometry y="80" width="120" height="60" as="geometry" />
        </mxCell>
        <mxCell id="S4tk1vwkPnhRa-5dBJaB-7" style="edgeStyle=orthogonalEdgeStyle;rounded=0;orthogonalLoop=1;jettySize=auto;html=1;entryX=0.5;entryY=0;entryDx=0;entryDy=0;" edge="1" parent="WIyWlLk6GJQsqaUBKTNV-1" source="S4tk1vwkPnhRa-5dBJaB-3" target="S4tk1vwkPnhRa-5dBJaB-4">
          <mxGeometry relative="1" as="geometry" />
        </mxCell>
        <mxCell id="S4tk1vwkPnhRa-5dBJaB-3" value="Convert KG to mg" style="rounded=0;whiteSpace=wrap;html=1;" vertex="1" parent="WIyWlLk6GJQsqaUBKTNV-1">
          <mxGeometry y="330" width="120" height="60" as="geometry" />
        </mxCell>
        <mxCell id="S4tk1vwkPnhRa-5dBJaB-9" style="edgeStyle=orthogonalEdgeStyle;rounded=0;orthogonalLoop=1;jettySize=auto;html=1;" edge="1" parent="WIyWlLk6GJQsqaUBKTNV-1" source="S4tk1vwkPnhRa-5dBJaB-4">
          <mxGeometry relative="1" as="geometry">
            <mxPoint x="60" y="590" as="targetPoint" />
          </mxGeometry>
        </mxCell>
        <mxCell id="S4tk1vwkPnhRa-5dBJaB-4" value="Hasil &amp;lt; 15 digit?" style="rhombus;whiteSpace=wrap;html=1;" vertex="1" parent="WIyWlLk6GJQsqaUBKTNV-1">
          <mxGeometry y="430" width="120" height="90" as="geometry" />
        </mxCell>
        <mxCell id="S4tk1vwkPnhRa-5dBJaB-12" style="edgeStyle=orthogonalEdgeStyle;rounded=0;orthogonalLoop=1;jettySize=auto;html=1;entryX=1;entryY=0.75;entryDx=0;entryDy=0;" edge="1" parent="WIyWlLk6GJQsqaUBKTNV-1" source="S4tk1vwkPnhRa-5dBJaB-10" target="S4tk1vwkPnhRa-5dBJaB-11">
          <mxGeometry relative="1" as="geometry">
            <Array as="points">
              <mxPoint x="380" y="635" />
            </Array>
          </mxGeometry>
        </mxCell>
        <mxCell id="S4tk1vwkPnhRa-5dBJaB-10" value="Hasil + angka 0 sampai 15 digit" style="rounded=0;whiteSpace=wrap;html=1;" vertex="1" parent="WIyWlLk6GJQsqaUBKTNV-1">
          <mxGeometry x="320" y="445" width="120" height="60" as="geometry" />
        </mxCell>
        <mxCell id="S4tk1vwkPnhRa-5dBJaB-20" style="edgeStyle=orthogonalEdgeStyle;rounded=0;orthogonalLoop=1;jettySize=auto;html=1;" edge="1" parent="WIyWlLk6GJQsqaUBKTNV-1" source="S4tk1vwkPnhRa-5dBJaB-11" target="S4tk1vwkPnhRa-5dBJaB-18">
          <mxGeometry relative="1" as="geometry" />
        </mxCell>
        <mxCell id="S4tk1vwkPnhRa-5dBJaB-11" value="Cek digit ke 10" style="rounded=0;whiteSpace=wrap;html=1;" vertex="1" parent="WIyWlLk6GJQsqaUBKTNV-1">
          <mxGeometry y="590" width="120" height="60" as="geometry" />
        </mxCell>
        <mxCell id="S4tk1vwkPnhRa-5dBJaB-14" value="No" style="edgeStyle=orthogonalEdgeStyle;rounded=0;html=1;jettySize=auto;orthogonalLoop=1;fontSize=11;endArrow=block;endFill=0;endSize=8;strokeWidth=1;shadow=0;labelBackgroundColor=none;entryX=0;entryY=0.5;entryDx=0;entryDy=0;" edge="1" parent="WIyWlLk6GJQsqaUBKTNV-1" target="S4tk1vwkPnhRa-5dBJaB-10">
          <mxGeometry x="0.1022" y="15" relative="1" as="geometry">
            <mxPoint x="1" as="offset" />
            <mxPoint x="120" y="474.5" as="sourcePoint" />
            <mxPoint x="310" y="474.5" as="targetPoint" />
          </mxGeometry>
        </mxCell>
        <mxCell id="S4tk1vwkPnhRa-5dBJaB-15" value="Yes" style="rounded=0;html=1;jettySize=auto;orthogonalLoop=1;fontSize=11;endArrow=block;endFill=0;endSize=8;strokeWidth=1;shadow=0;labelBackgroundColor=none;edgeStyle=orthogonalEdgeStyle;" edge="1" parent="WIyWlLk6GJQsqaUBKTNV-1" source="S4tk1vwkPnhRa-5dBJaB-4" target="S4tk1vwkPnhRa-5dBJaB-11">
          <mxGeometry y="20" relative="1" as="geometry">
            <mxPoint as="offset" />
            <mxPoint x="70" y="280" as="sourcePoint" />
            <mxPoint x="70" y="340" as="targetPoint" />
          </mxGeometry>
        </mxCell>
        <mxCell id="S4tk1vwkPnhRa-5dBJaB-17" value="Digit ke 10 = 5" style="rhombus;whiteSpace=wrap;html=1;" vertex="1" parent="WIyWlLk6GJQsqaUBKTNV-1">
          <mxGeometry x="5" y="840" width="110" height="110" as="geometry" />
        </mxCell>
        <mxCell id="S4tk1vwkPnhRa-5dBJaB-18" value="Digit ke 10 &amp;gt; 5" style="rhombus;whiteSpace=wrap;html=1;" vertex="1" parent="WIyWlLk6GJQsqaUBKTNV-1">
          <mxGeometry x="5" y="690" width="110" height="110" as="geometry" />
        </mxCell>
        <mxCell id="S4tk1vwkPnhRa-5dBJaB-19" value="&lt;span style=&quot;font-weight: 400;&quot;&gt;Digit ke 10 &amp;lt;= 4&lt;/span&gt;" style="rhombus;whiteSpace=wrap;html=1;fontStyle=1" vertex="1" parent="WIyWlLk6GJQsqaUBKTNV-1">
          <mxGeometry x="5" y="980" width="110" height="110" as="geometry" />
        </mxCell>
        <mxCell id="S4tk1vwkPnhRa-5dBJaB-28" value="No" style="edgeStyle=orthogonalEdgeStyle;rounded=0;html=1;jettySize=auto;orthogonalLoop=1;fontSize=11;endArrow=block;endFill=0;endSize=8;strokeWidth=1;shadow=0;labelBackgroundColor=none;" edge="1" parent="WIyWlLk6GJQsqaUBKTNV-1" target="S4tk1vwkPnhRa-5dBJaB-17">
          <mxGeometry x="0.1022" y="15" relative="1" as="geometry">
            <mxPoint x="1" as="offset" />
            <mxPoint x="60" y="799.5" as="sourcePoint" />
            <mxPoint x="260" y="800" as="targetPoint" />
          </mxGeometry>
        </mxCell>
        <mxCell id="S4tk1vwkPnhRa-5dBJaB-29" value="No" style="edgeStyle=orthogonalEdgeStyle;rounded=0;html=1;jettySize=auto;orthogonalLoop=1;fontSize=11;endArrow=block;endFill=0;endSize=8;strokeWidth=1;shadow=0;labelBackgroundColor=none;" edge="1" parent="WIyWlLk6GJQsqaUBKTNV-1" target="S4tk1vwkPnhRa-5dBJaB-19">
          <mxGeometry x="0.2" y="20" relative="1" as="geometry">
            <mxPoint as="offset" />
            <mxPoint x="60" y="950" as="sourcePoint" />
            <mxPoint x="70" y="850" as="targetPoint" />
          </mxGeometry>
        </mxCell>
        <mxCell id="S4tk1vwkPnhRa-5dBJaB-30" value="Yes" style="rounded=0;html=1;jettySize=auto;orthogonalLoop=1;fontSize=11;endArrow=block;endFill=0;endSize=8;strokeWidth=1;shadow=0;labelBackgroundColor=none;edgeStyle=orthogonalEdgeStyle;exitX=1;exitY=0.5;exitDx=0;exitDy=0;entryX=0;entryY=0.5;entryDx=0;entryDy=0;" edge="1" parent="WIyWlLk6GJQsqaUBKTNV-1" source="S4tk1vwkPnhRa-5dBJaB-18" target="S4tk1vwkPnhRa-5dBJaB-31">
          <mxGeometry y="20" relative="1" as="geometry">
            <mxPoint as="offset" />
            <mxPoint x="120" y="560" as="sourcePoint" />
            <mxPoint x="190" y="745" as="targetPoint" />
          </mxGeometry>
        </mxCell>
        <mxCell id="S4tk1vwkPnhRa-5dBJaB-31" value="Pembulatan ke atas" style="rounded=1;whiteSpace=wrap;html=1;fontSize=12;glass=0;strokeWidth=1;shadow=0;" vertex="1" parent="WIyWlLk6GJQsqaUBKTNV-1">
          <mxGeometry x="194" y="725" width="120" height="40" as="geometry" />
        </mxCell>
        <mxCell id="S4tk1vwkPnhRa-5dBJaB-33" value="Yes" style="rounded=0;html=1;jettySize=auto;orthogonalLoop=1;fontSize=11;endArrow=block;endFill=0;endSize=8;strokeWidth=1;shadow=0;labelBackgroundColor=none;edgeStyle=orthogonalEdgeStyle;exitX=1;exitY=0.5;exitDx=0;exitDy=0;" edge="1" parent="WIyWlLk6GJQsqaUBKTNV-1" source="S4tk1vwkPnhRa-5dBJaB-17">
          <mxGeometry y="20" relative="1" as="geometry">
            <mxPoint as="offset" />
            <mxPoint x="125" y="755" as="sourcePoint" />
            <mxPoint x="200" y="895" as="targetPoint" />
          </mxGeometry>
        </mxCell>
        <mxCell id="S4tk1vwkPnhRa-5dBJaB-37" value="" style="edgeStyle=orthogonalEdgeStyle;curved=1;orthogonalLoop=1;jettySize=auto;html=1;strokeColor=default;" edge="1" parent="WIyWlLk6GJQsqaUBKTNV-1" source="S4tk1vwkPnhRa-5dBJaB-34" target="S4tk1vwkPnhRa-5dBJaB-35">
          <mxGeometry relative="1" as="geometry" />
        </mxCell>
        <mxCell id="S4tk1vwkPnhRa-5dBJaB-34" value="Cek digit ke 9" style="rounded=0;whiteSpace=wrap;html=1;" vertex="1" parent="WIyWlLk6GJQsqaUBKTNV-1">
          <mxGeometry x="200" y="865" width="120" height="60" as="geometry" />
        </mxCell>
        <mxCell id="S4tk1vwkPnhRa-5dBJaB-41" style="edgeStyle=orthogonalEdgeStyle;curved=1;orthogonalLoop=1;jettySize=auto;html=1;entryX=0.5;entryY=0;entryDx=0;entryDy=0;strokeColor=default;" edge="1" parent="WIyWlLk6GJQsqaUBKTNV-1" source="S4tk1vwkPnhRa-5dBJaB-35" target="S4tk1vwkPnhRa-5dBJaB-39">
          <mxGeometry relative="1" as="geometry" />
        </mxCell>
        <mxCell id="S4tk1vwkPnhRa-5dBJaB-43" value="" style="edgeStyle=orthogonalEdgeStyle;curved=1;orthogonalLoop=1;jettySize=auto;html=1;strokeColor=default;" edge="1" parent="WIyWlLk6GJQsqaUBKTNV-1" source="S4tk1vwkPnhRa-5dBJaB-35" target="S4tk1vwkPnhRa-5dBJaB-42">
          <mxGeometry relative="1" as="geometry" />
        </mxCell>
        <mxCell id="S4tk1vwkPnhRa-5dBJaB-35" value="Digit ke 9 ganjil" style="rhombus;whiteSpace=wrap;html=1;rounded=0;" vertex="1" parent="WIyWlLk6GJQsqaUBKTNV-1">
          <mxGeometry x="360" y="847.5" width="110" height="95" as="geometry" />
        </mxCell>
        <mxCell id="S4tk1vwkPnhRa-5dBJaB-39" value="Pembulatan ke atas" style="rounded=1;whiteSpace=wrap;html=1;fontSize=12;glass=0;strokeWidth=1;shadow=0;" vertex="1" parent="WIyWlLk6GJQsqaUBKTNV-1">
          <mxGeometry x="355" y="980" width="120" height="40" as="geometry" />
        </mxCell>
        <mxCell id="S4tk1vwkPnhRa-5dBJaB-45" value="" style="edgeStyle=orthogonalEdgeStyle;curved=1;orthogonalLoop=1;jettySize=auto;html=1;strokeColor=default;" edge="1" parent="WIyWlLk6GJQsqaUBKTNV-1" source="S4tk1vwkPnhRa-5dBJaB-42" target="S4tk1vwkPnhRa-5dBJaB-44">
          <mxGeometry relative="1" as="geometry" />
        </mxCell>
        <mxCell id="S4tk1vwkPnhRa-5dBJaB-42" value="cek digit ke 11" style="whiteSpace=wrap;html=1;rounded=0;" vertex="1" parent="WIyWlLk6GJQsqaUBKTNV-1">
          <mxGeometry x="545" y="865" width="120" height="60" as="geometry" />
        </mxCell>
        <mxCell id="S4tk1vwkPnhRa-5dBJaB-44" value="Digit ke 11 = 0" style="rhombus;whiteSpace=wrap;html=1;rounded=0;direction=south;" vertex="1" parent="WIyWlLk6GJQsqaUBKTNV-1">
          <mxGeometry x="552.5" y="960" width="105" height="80" as="geometry" />
        </mxCell>
        <mxCell id="S4tk1vwkPnhRa-5dBJaB-46" value="Pembulatan ke atas" style="rounded=1;whiteSpace=wrap;html=1;fontSize=12;glass=0;strokeWidth=1;shadow=0;" vertex="1" parent="WIyWlLk6GJQsqaUBKTNV-1">
          <mxGeometry x="545" y="1080" width="120" height="40" as="geometry" />
        </mxCell>
        <mxCell id="S4tk1vwkPnhRa-5dBJaB-48" value="Pembulatan ke bawah" style="rounded=1;whiteSpace=wrap;html=1;fontSize=12;glass=0;strokeWidth=1;shadow=0;" vertex="1" parent="WIyWlLk6GJQsqaUBKTNV-1">
          <mxGeometry x="720" y="980" width="115" height="40" as="geometry" />
        </mxCell>
        <mxCell id="S4tk1vwkPnhRa-5dBJaB-49" value="Yes" style="rounded=0;html=1;jettySize=auto;orthogonalLoop=1;fontSize=11;endArrow=block;endFill=0;endSize=8;strokeWidth=1;shadow=0;labelBackgroundColor=none;edgeStyle=orthogonalEdgeStyle;entryX=0;entryY=0.5;entryDx=0;entryDy=0;" edge="1" parent="WIyWlLk6GJQsqaUBKTNV-1" target="S4tk1vwkPnhRa-5dBJaB-48">
          <mxGeometry y="20" relative="1" as="geometry">
            <mxPoint as="offset" />
            <mxPoint x="660" y="1000" as="sourcePoint" />
            <mxPoint x="210.00000000000023" y="905" as="targetPoint" />
          </mxGeometry>
        </mxCell>
        <mxCell id="S4tk1vwkPnhRa-5dBJaB-51" value="No" style="edgeStyle=orthogonalEdgeStyle;rounded=0;html=1;jettySize=auto;orthogonalLoop=1;fontSize=11;endArrow=block;endFill=0;endSize=8;strokeWidth=1;shadow=0;labelBackgroundColor=none;entryX=0.5;entryY=0;entryDx=0;entryDy=0;" edge="1" parent="WIyWlLk6GJQsqaUBKTNV-1" target="S4tk1vwkPnhRa-5dBJaB-46">
          <mxGeometry x="-0.3333" y="17" relative="1" as="geometry">
            <mxPoint as="offset" />
            <mxPoint x="605" y="1040" as="sourcePoint" />
            <mxPoint x="123" y="990" as="targetPoint" />
          </mxGeometry>
        </mxCell>
        <mxCell id="S4tk1vwkPnhRa-5dBJaB-52" value="Pembulatan ke bawah" style="rounded=1;whiteSpace=wrap;html=1;fontSize=12;glass=0;strokeWidth=1;shadow=0;" vertex="1" parent="WIyWlLk6GJQsqaUBKTNV-1">
          <mxGeometry x="7" y="1159" width="115" height="40" as="geometry" />
        </mxCell>
        <mxCell id="S4tk1vwkPnhRa-5dBJaB-53" value="Yes" style="rounded=0;html=1;jettySize=auto;orthogonalLoop=1;fontSize=11;endArrow=block;endFill=0;endSize=8;strokeWidth=1;shadow=0;labelBackgroundColor=none;edgeStyle=orthogonalEdgeStyle;" edge="1" parent="WIyWlLk6GJQsqaUBKTNV-1">
          <mxGeometry x="-0.1429" y="21" relative="1" as="geometry">
            <mxPoint as="offset" />
            <mxPoint x="59.28999999999999" y="1088" as="sourcePoint" />
            <mxPoint x="59.28999999999999" y="1158" as="targetPoint" />
          </mxGeometry>
        </mxCell>
        <mxCell id="S4tk1vwkPnhRa-5dBJaB-80" value="" style="edgeStyle=orthogonalEdgeStyle;curved=1;orthogonalLoop=1;jettySize=auto;html=1;strokeColor=default;" edge="1" parent="WIyWlLk6GJQsqaUBKTNV-1" source="S4tk1vwkPnhRa-5dBJaB-56" target="S4tk1vwkPnhRa-5dBJaB-77">
          <mxGeometry relative="1" as="geometry" />
        </mxCell>
        <mxCell id="S4tk1vwkPnhRa-5dBJaB-56" value="Cek digit ke 4&lt;br&gt;Pembulatan 1-2" style="rounded=0;whiteSpace=wrap;html=1;" vertex="1" parent="WIyWlLk6GJQsqaUBKTNV-1">
          <mxGeometry x="847" y="195" width="120" height="60" as="geometry" />
        </mxCell>
        <mxCell id="S4tk1vwkPnhRa-5dBJaB-57" value="No" style="edgeStyle=orthogonalEdgeStyle;rounded=0;html=1;jettySize=auto;orthogonalLoop=1;fontSize=11;endArrow=block;endFill=0;endSize=8;strokeWidth=1;shadow=0;labelBackgroundColor=none;entryX=0.5;entryY=0;entryDx=0;entryDy=0;" edge="1" parent="WIyWlLk6GJQsqaUBKTNV-1" target="S4tk1vwkPnhRa-5dBJaB-76">
          <mxGeometry x="0.1022" y="15" relative="1" as="geometry">
            <mxPoint x="1" as="offset" />
            <mxPoint x="907.71" y="404.4999999999998" as="sourcePoint" />
            <mxPoint x="907.71" y="445" as="targetPoint" />
          </mxGeometry>
        </mxCell>
        <mxCell id="S4tk1vwkPnhRa-5dBJaB-58" value="No" style="edgeStyle=orthogonalEdgeStyle;rounded=0;html=1;jettySize=auto;orthogonalLoop=1;fontSize=11;endArrow=block;endFill=0;endSize=8;strokeWidth=1;shadow=0;labelBackgroundColor=none;entryX=0.5;entryY=0;entryDx=0;entryDy=0;" edge="1" parent="WIyWlLk6GJQsqaUBKTNV-1" target="S4tk1vwkPnhRa-5dBJaB-78">
          <mxGeometry x="0.2" y="20" relative="1" as="geometry">
            <mxPoint as="offset" />
            <mxPoint x="907.71" y="781" as="sourcePoint" />
            <mxPoint x="907.71" y="811" as="targetPoint" />
          </mxGeometry>
        </mxCell>
        <mxCell id="S4tk1vwkPnhRa-5dBJaB-59" value="Yes" style="rounded=0;html=1;jettySize=auto;orthogonalLoop=1;fontSize=11;endArrow=block;endFill=0;endSize=8;strokeWidth=1;shadow=0;labelBackgroundColor=none;edgeStyle=orthogonalEdgeStyle;exitX=1;exitY=0.5;exitDx=0;exitDy=0;entryX=0;entryY=0.5;entryDx=0;entryDy=0;" edge="1" parent="WIyWlLk6GJQsqaUBKTNV-1" target="S4tk1vwkPnhRa-5dBJaB-60">
          <mxGeometry y="20" relative="1" as="geometry">
            <mxPoint as="offset" />
            <mxPoint x="962.71" y="355" as="sourcePoint" />
            <mxPoint x="1037.71" y="355" as="targetPoint" />
          </mxGeometry>
        </mxCell>
        <mxCell id="S4tk1vwkPnhRa-5dBJaB-82" value="" style="edgeStyle=orthogonalEdgeStyle;curved=1;orthogonalLoop=1;jettySize=auto;html=1;strokeColor=default;entryX=0;entryY=0.5;entryDx=0;entryDy=0;" edge="1" parent="WIyWlLk6GJQsqaUBKTNV-1" source="S4tk1vwkPnhRa-5dBJaB-60" target="S4tk1vwkPnhRa-5dBJaB-85">
          <mxGeometry relative="1" as="geometry">
            <mxPoint x="1247" y="355" as="targetPoint" />
          </mxGeometry>
        </mxCell>
        <mxCell id="S4tk1vwkPnhRa-5dBJaB-60" value="Pembulatan ke atas" style="rounded=1;whiteSpace=wrap;html=1;fontSize=12;glass=0;strokeWidth=1;shadow=0;" vertex="1" parent="WIyWlLk6GJQsqaUBKTNV-1">
          <mxGeometry x="1041.71" y="335" width="120" height="40" as="geometry" />
        </mxCell>
        <mxCell id="S4tk1vwkPnhRa-5dBJaB-61" value="Yes" style="rounded=0;html=1;jettySize=auto;orthogonalLoop=1;fontSize=11;endArrow=block;endFill=0;endSize=8;strokeWidth=1;shadow=0;labelBackgroundColor=none;edgeStyle=orthogonalEdgeStyle;exitX=1;exitY=0.5;exitDx=0;exitDy=0;" edge="1" parent="WIyWlLk6GJQsqaUBKTNV-1">
          <mxGeometry y="20" relative="1" as="geometry">
            <mxPoint as="offset" />
            <mxPoint x="962.71" y="731" as="sourcePoint" />
            <mxPoint x="1047.71" y="731" as="targetPoint" />
          </mxGeometry>
        </mxCell>
        <mxCell id="S4tk1vwkPnhRa-5dBJaB-62" value="" style="edgeStyle=orthogonalEdgeStyle;curved=1;orthogonalLoop=1;jettySize=auto;html=1;strokeColor=default;" edge="1" parent="WIyWlLk6GJQsqaUBKTNV-1" source="S4tk1vwkPnhRa-5dBJaB-63" target="S4tk1vwkPnhRa-5dBJaB-66">
          <mxGeometry relative="1" as="geometry" />
        </mxCell>
        <mxCell id="S4tk1vwkPnhRa-5dBJaB-63" value="Cek digit ke 9" style="rounded=0;whiteSpace=wrap;html=1;" vertex="1" parent="WIyWlLk6GJQsqaUBKTNV-1">
          <mxGeometry x="1047.71" y="701" width="120" height="60" as="geometry" />
        </mxCell>
        <mxCell id="S4tk1vwkPnhRa-5dBJaB-64" style="edgeStyle=orthogonalEdgeStyle;curved=1;orthogonalLoop=1;jettySize=auto;html=1;entryX=0.5;entryY=0;entryDx=0;entryDy=0;strokeColor=default;" edge="1" parent="WIyWlLk6GJQsqaUBKTNV-1" source="S4tk1vwkPnhRa-5dBJaB-66" target="S4tk1vwkPnhRa-5dBJaB-67">
          <mxGeometry relative="1" as="geometry" />
        </mxCell>
        <mxCell id="S4tk1vwkPnhRa-5dBJaB-65" value="" style="edgeStyle=orthogonalEdgeStyle;curved=1;orthogonalLoop=1;jettySize=auto;html=1;strokeColor=default;" edge="1" parent="WIyWlLk6GJQsqaUBKTNV-1" source="S4tk1vwkPnhRa-5dBJaB-66" target="S4tk1vwkPnhRa-5dBJaB-69">
          <mxGeometry relative="1" as="geometry" />
        </mxCell>
        <mxCell id="S4tk1vwkPnhRa-5dBJaB-66" value="Digit ke 9 ganjil" style="rhombus;whiteSpace=wrap;html=1;rounded=0;" vertex="1" parent="WIyWlLk6GJQsqaUBKTNV-1">
          <mxGeometry x="1207.71" y="683.5" width="110" height="95" as="geometry" />
        </mxCell>
        <mxCell id="S4tk1vwkPnhRa-5dBJaB-67" value="Pembulatan ke atas" style="rounded=1;whiteSpace=wrap;html=1;fontSize=12;glass=0;strokeWidth=1;shadow=0;" vertex="1" parent="WIyWlLk6GJQsqaUBKTNV-1">
          <mxGeometry x="1202.71" y="816" width="120" height="40" as="geometry" />
        </mxCell>
        <mxCell id="S4tk1vwkPnhRa-5dBJaB-68" value="" style="edgeStyle=orthogonalEdgeStyle;curved=1;orthogonalLoop=1;jettySize=auto;html=1;strokeColor=default;" edge="1" parent="WIyWlLk6GJQsqaUBKTNV-1" source="S4tk1vwkPnhRa-5dBJaB-69" target="S4tk1vwkPnhRa-5dBJaB-70">
          <mxGeometry relative="1" as="geometry" />
        </mxCell>
        <mxCell id="S4tk1vwkPnhRa-5dBJaB-69" value="cek digit ke 11" style="whiteSpace=wrap;html=1;rounded=0;" vertex="1" parent="WIyWlLk6GJQsqaUBKTNV-1">
          <mxGeometry x="1392.71" y="701" width="120" height="60" as="geometry" />
        </mxCell>
        <mxCell id="S4tk1vwkPnhRa-5dBJaB-70" value="Digit ke 11 = 0" style="rhombus;whiteSpace=wrap;html=1;rounded=0;direction=south;" vertex="1" parent="WIyWlLk6GJQsqaUBKTNV-1">
          <mxGeometry x="1400.21" y="796" width="105" height="80" as="geometry" />
        </mxCell>
        <mxCell id="S4tk1vwkPnhRa-5dBJaB-71" value="Pembulatan ke atas" style="rounded=1;whiteSpace=wrap;html=1;fontSize=12;glass=0;strokeWidth=1;shadow=0;" vertex="1" parent="WIyWlLk6GJQsqaUBKTNV-1">
          <mxGeometry x="1392.71" y="916" width="120" height="40" as="geometry" />
        </mxCell>
        <mxCell id="S4tk1vwkPnhRa-5dBJaB-72" value="Pembulatan ke bawah" style="rounded=1;whiteSpace=wrap;html=1;fontSize=12;glass=0;strokeWidth=1;shadow=0;" vertex="1" parent="WIyWlLk6GJQsqaUBKTNV-1">
          <mxGeometry x="1567.71" y="816" width="115" height="40" as="geometry" />
        </mxCell>
        <mxCell id="S4tk1vwkPnhRa-5dBJaB-73" value="Yes" style="rounded=0;html=1;jettySize=auto;orthogonalLoop=1;fontSize=11;endArrow=block;endFill=0;endSize=8;strokeWidth=1;shadow=0;labelBackgroundColor=none;edgeStyle=orthogonalEdgeStyle;entryX=0;entryY=0.5;entryDx=0;entryDy=0;" edge="1" parent="WIyWlLk6GJQsqaUBKTNV-1" target="S4tk1vwkPnhRa-5dBJaB-72">
          <mxGeometry y="20" relative="1" as="geometry">
            <mxPoint as="offset" />
            <mxPoint x="1507.71" y="836" as="sourcePoint" />
            <mxPoint x="1057.7100000000003" y="741" as="targetPoint" />
          </mxGeometry>
        </mxCell>
        <mxCell id="S4tk1vwkPnhRa-5dBJaB-74" value="No" style="edgeStyle=orthogonalEdgeStyle;rounded=0;html=1;jettySize=auto;orthogonalLoop=1;fontSize=11;endArrow=block;endFill=0;endSize=8;strokeWidth=1;shadow=0;labelBackgroundColor=none;entryX=0.5;entryY=0;entryDx=0;entryDy=0;" edge="1" parent="WIyWlLk6GJQsqaUBKTNV-1" target="S4tk1vwkPnhRa-5dBJaB-71">
          <mxGeometry x="-0.3333" y="17" relative="1" as="geometry">
            <mxPoint as="offset" />
            <mxPoint x="1452.71" y="876" as="sourcePoint" />
            <mxPoint x="970.71" y="826" as="targetPoint" />
          </mxGeometry>
        </mxCell>
        <mxCell id="S4tk1vwkPnhRa-5dBJaB-75" value="Yes" style="rounded=0;html=1;jettySize=auto;orthogonalLoop=1;fontSize=11;endArrow=block;endFill=0;endSize=8;strokeWidth=1;shadow=0;labelBackgroundColor=none;edgeStyle=orthogonalEdgeStyle;" edge="1" parent="WIyWlLk6GJQsqaUBKTNV-1">
          <mxGeometry x="-0.1429" y="21" relative="1" as="geometry">
            <mxPoint as="offset" />
            <mxPoint x="907" y="919" as="sourcePoint" />
            <mxPoint x="907" y="989" as="targetPoint" />
          </mxGeometry>
        </mxCell>
        <mxCell id="S4tk1vwkPnhRa-5dBJaB-76" value="Digit ke 10 = 5" style="rhombus;whiteSpace=wrap;html=1;" vertex="1" parent="WIyWlLk6GJQsqaUBKTNV-1">
          <mxGeometry x="852" y="676" width="110" height="110" as="geometry" />
        </mxCell>
        <mxCell id="S4tk1vwkPnhRa-5dBJaB-77" value="Digit ke 10 &amp;gt; 5" style="rhombus;whiteSpace=wrap;html=1;" vertex="1" parent="WIyWlLk6GJQsqaUBKTNV-1">
          <mxGeometry x="852" y="300" width="110" height="110" as="geometry" />
        </mxCell>
        <mxCell id="S4tk1vwkPnhRa-5dBJaB-78" value="&lt;span style=&quot;font-weight: 400;&quot;&gt;Digit ke 10 &amp;lt;= 4&lt;/span&gt;" style="rhombus;whiteSpace=wrap;html=1;fontStyle=1" vertex="1" parent="WIyWlLk6GJQsqaUBKTNV-1">
          <mxGeometry x="852" y="816" width="110" height="110" as="geometry" />
        </mxCell>
        <mxCell id="S4tk1vwkPnhRa-5dBJaB-79" value="Pembulatan ke bawah" style="rounded=1;whiteSpace=wrap;html=1;fontSize=12;glass=0;strokeWidth=1;shadow=0;" vertex="1" parent="WIyWlLk6GJQsqaUBKTNV-1">
          <mxGeometry x="852" y="991" width="115" height="40" as="geometry" />
        </mxCell>
        <mxCell id="S4tk1vwkPnhRa-5dBJaB-84" style="edgeStyle=orthogonalEdgeStyle;rounded=0;orthogonalLoop=1;jettySize=auto;html=1;entryX=0.5;entryY=0;entryDx=0;entryDy=0;" edge="1" parent="WIyWlLk6GJQsqaUBKTNV-1" source="S4tk1vwkPnhRa-5dBJaB-85" target="S4tk1vwkPnhRa-5dBJaB-87">
          <mxGeometry relative="1" as="geometry" />
        </mxCell>
        <mxCell id="S4tk1vwkPnhRa-5dBJaB-85" value="Convert KG to mg" style="rounded=0;whiteSpace=wrap;html=1;" vertex="1" parent="WIyWlLk6GJQsqaUBKTNV-1">
          <mxGeometry x="1260" y="324.5" width="120" height="60" as="geometry" />
        </mxCell>
        <mxCell id="S4tk1vwkPnhRa-5dBJaB-86" style="edgeStyle=orthogonalEdgeStyle;rounded=0;orthogonalLoop=1;jettySize=auto;html=1;" edge="1" parent="WIyWlLk6GJQsqaUBKTNV-1" source="S4tk1vwkPnhRa-5dBJaB-87">
          <mxGeometry relative="1" as="geometry">
            <mxPoint x="1320" y="584.5" as="targetPoint" />
          </mxGeometry>
        </mxCell>
        <mxCell id="S4tk1vwkPnhRa-5dBJaB-87" value="Hasil &amp;lt; 15 digit?" style="rhombus;whiteSpace=wrap;html=1;" vertex="1" parent="WIyWlLk6GJQsqaUBKTNV-1">
          <mxGeometry x="1260" y="424.5" width="120" height="90" as="geometry" />
        </mxCell>
        <mxCell id="S4tk1vwkPnhRa-5dBJaB-88" style="edgeStyle=orthogonalEdgeStyle;rounded=0;orthogonalLoop=1;jettySize=auto;html=1;entryX=1;entryY=0.75;entryDx=0;entryDy=0;" edge="1" parent="WIyWlLk6GJQsqaUBKTNV-1" source="S4tk1vwkPnhRa-5dBJaB-89" target="S4tk1vwkPnhRa-5dBJaB-90">
          <mxGeometry relative="1" as="geometry">
            <Array as="points">
              <mxPoint x="1640" y="629.5" />
            </Array>
          </mxGeometry>
        </mxCell>
        <mxCell id="S4tk1vwkPnhRa-5dBJaB-89" value="Hasil + angka 0 sampai 15 digit" style="rounded=0;whiteSpace=wrap;html=1;" vertex="1" parent="WIyWlLk6GJQsqaUBKTNV-1">
          <mxGeometry x="1580" y="439.5" width="120" height="60" as="geometry" />
        </mxCell>
        <mxCell id="S4tk1vwkPnhRa-5dBJaB-90" value="Cek digit ke 10" style="rounded=0;whiteSpace=wrap;html=1;" vertex="1" parent="WIyWlLk6GJQsqaUBKTNV-1">
          <mxGeometry x="1260" y="584.5" width="120" height="60" as="geometry" />
        </mxCell>
        <mxCell id="S4tk1vwkPnhRa-5dBJaB-91" value="No" style="edgeStyle=orthogonalEdgeStyle;rounded=0;html=1;jettySize=auto;orthogonalLoop=1;fontSize=11;endArrow=block;endFill=0;endSize=8;strokeWidth=1;shadow=0;labelBackgroundColor=none;entryX=0;entryY=0.5;entryDx=0;entryDy=0;" edge="1" parent="WIyWlLk6GJQsqaUBKTNV-1" target="S4tk1vwkPnhRa-5dBJaB-89">
          <mxGeometry x="0.1022" y="15" relative="1" as="geometry">
            <mxPoint x="1" as="offset" />
            <mxPoint x="1380" y="469" as="sourcePoint" />
            <mxPoint x="1570" y="469" as="targetPoint" />
          </mxGeometry>
        </mxCell>
        <mxCell id="S4tk1vwkPnhRa-5dBJaB-92" value="Yes" style="rounded=0;html=1;jettySize=auto;orthogonalLoop=1;fontSize=11;endArrow=block;endFill=0;endSize=8;strokeWidth=1;shadow=0;labelBackgroundColor=none;edgeStyle=orthogonalEdgeStyle;" edge="1" parent="WIyWlLk6GJQsqaUBKTNV-1" source="S4tk1vwkPnhRa-5dBJaB-87" target="S4tk1vwkPnhRa-5dBJaB-90">
          <mxGeometry y="20" relative="1" as="geometry">
            <mxPoint as="offset" />
            <mxPoint x="1330" y="274.5" as="sourcePoint" />
            <mxPoint x="1330" y="334.5" as="targetPoint" />
          </mxGeometry>
        </mxCell>
      </root>
    </mxGraphModel>
  </diagram>
</mxfile>
